<?xml version="1.0" encoding="utf-8"?>
<!-- Generator: Adobe Illustrator 16.0.2, SVG Export Plug-In . SVG Version: 6.00 Build 0)  -->
<!DOCTYPE svg PUBLIC "-//W3C//DTD SVG 1.1//EN" "http://www.w3.org/Graphics/SVG/1.1/DTD/svg11.dtd">
<svg version="1.1" id="圖層_1" xmlns="http://www.w3.org/2000/svg" xmlns:xlink="http://www.w3.org/1999/xlink" x="0px" y="0px"
	 width="612px" height="792px" viewBox="0 0 612 792" enable-background="new 0 0 612 792" xml:space="preserve">
<path fill="#BABABA" d="M561.106,306.219l-155.231-22.631l-69.381-140.675c-12.432-25.075-48.45-25.394-60.988,0l-69.381,140.675
	L50.894,306.219c-27.837,4.038-38.994,38.356-18.806,58.013l112.306,109.438l-26.563,154.594
	c-4.781,27.943,24.65,48.875,49.3,35.806L306,591.075l138.869,72.993c24.649,12.963,54.081-7.862,49.3-35.806l-26.563-154.594
	l112.306-109.438C600.1,344.575,588.943,310.256,561.106,306.219L561.106,306.219z M412.888,455.818l25.181,147.051L306,533.487
	l-132.069,69.382l25.181-147.051L92.225,351.694l147.688-21.462L306,196.356l66.088,133.875l147.688,21.462L412.888,455.818
	L412.888,455.818z"/>
</svg>
